<svg xmlns="http://www.w3.org/2000/svg" width="10" height="10" viewBox="0 0 10 10" fill="none">
<path d="M0.356934 6.917C0.356934 6.97664 0.405526 7.025 0.465467 7.025H5.88228C5.97881 7.025 6.02731 7.14099 5.95926 7.20913L3.85526 9.31587C3.78721 9.38401 3.83571 9.5 3.93224 9.5H6.21035C6.23925 9.5 6.26697 9.48852 6.28733 9.46813L9.32538 6.42613C9.36745 6.38401 9.36745 6.31599 9.32538 6.27387L6.06262 3.00687C6.04226 2.98647 6.01454 2.975 5.98565 2.975H3.93224C3.83571 2.975 3.78721 3.09099 3.85526 3.15913L5.95926 5.26587C6.02731 5.334 5.97881 5.45 5.88228 5.45H2.03842C1.97848 5.45 1.92989 5.40164 1.92989 5.342V0.608C1.92989 0.548353 1.88129 0.5 1.82135 0.5H0.465467C0.405526 0.5 0.356934 0.548353 0.356934 0.608V6.917Z" fill="black"/>
</svg>