<svg xmlns="http://www.w3.org/2000/svg" width="358" height="43" viewBox="0 0 358 43" fill="none">
<path d="M52.5454 12.8469H36.0982C34.2827 9.34321 29.9039 8.38765 27.7145 8.38765C25.0445 8.38765 22.2677 8.38765 20.8793 10.5111C20.5055 11.1482 20.4521 12.0506 20.8259 13.0062C21.5735 14.8642 25.1513 15.2889 27.0203 15.5543L40.1032 17.4123C44.3218 17.9963 50.623 19.3765 52.9192 24.5259C54.3076 27.3926 53.9872 31.9049 52.1182 34.7716C47.2588 42.3099 36.0982 43 30.5447 43H25.0445C12.7091 43 5.07298 39.5494 1.33499 33.2321C0.854396 32.1704 0.427198 31.321 0 29.2506H17.8889C18.4763 30.1 18.8501 30.684 19.5977 31.321C22.6949 34.1877 28.0349 34.2938 30.5447 33.8161C31.8263 33.6037 33.6953 33.0728 34.3895 31.4802C34.7099 30.8963 34.8167 29.9407 34.3361 29.1975C33.1079 27.021 30.5447 26.8086 27.0203 26.384L17.7821 25.3753C13.6703 24.9506 4.91278 23.5704 2.40299 17.837C1.068 14.8111 1.33499 9.82099 3.31079 6.95432C7.79637 0.15926 18.3695 0 22.3745 0C22.3745 0 25.5251 0 27.4475 0C41.8654 0 50.1958 5.36173 52.5454 12.8469Z" fill="black"/>
<path d="M54.8286 21.5C54.8286 6.74198 66.7902 0 81.6887 0C96.5339 0 108.602 6.74198 108.602 21.5C108.602 36.258 96.5339 43 81.6887 43C66.7902 43 54.8286 36.258 54.8286 21.5ZM70.5816 21.4469C70.5816 29.0383 74.5331 32.7012 81.6887 32.7012C89.0579 32.7012 92.9027 29.0914 92.9027 21.5531C92.9027 14.1741 89.0045 10.2988 81.7955 10.2988C74.4263 10.2988 70.5816 14.2272 70.5816 21.4469Z" fill="black"/>
<path d="M161.435 12.8469H144.988C143.172 9.34321 138.794 8.38765 136.604 8.38765C133.934 8.38765 131.157 8.38765 129.769 10.5111C129.395 11.1482 129.342 12.0506 129.716 13.0062C130.463 14.8642 134.041 15.2889 135.91 15.5543L148.993 17.4123C153.211 17.9963 159.513 19.3765 161.809 24.5259C163.197 27.3926 162.877 31.9049 161.008 34.7716C156.148 42.3099 144.988 43 139.434 43H133.934C121.599 43 113.963 39.5494 110.225 33.2321C109.744 32.1704 109.317 31.321 108.89 29.2506H126.779C127.366 30.1 127.74 30.684 128.487 31.321C131.585 34.1877 136.925 34.2938 139.434 33.8161C140.716 33.6037 142.585 33.0728 143.279 31.4802C143.599 30.8963 143.706 29.9407 143.226 29.1975C141.997 27.021 139.434 26.8086 135.91 26.384L126.672 25.3753C122.56 24.9506 113.802 23.5704 111.293 17.837C109.958 14.8111 110.225 9.82099 112.2 6.95432C116.686 0.15926 127.259 0 131.264 0C131.264 0 134.415 0 136.337 0C150.755 0 159.085 5.36173 161.435 12.8469Z" fill="black"/>
<path d="M217.171 17.4123H201.152C199.443 12.9 197.253 11.4667 193.142 10.7235C190.472 10.2457 185.933 10.6173 183.263 13.3247C179.952 16.7222 180.219 22.9333 180.753 25.3753C181.394 28.4012 183.156 30.5247 186.253 31.7988C189.617 33.1259 194.797 32.542 197.2 31.0556C199.763 29.463 200.511 27.6049 201.312 24.9506L217.545 25.7469C217.278 38.5938 204.569 43 192.127 43H189.404C182.515 43 171.995 41.9914 166.442 32.7543C163.077 27.2864 162.757 16.6161 165.854 10.8296C170.981 1.64568 181.981 0 188.549 0H193.836C198.588 0 210.069 1.27407 215.035 9.34321C216.05 10.9889 217.278 13.9086 217.171 17.4123Z" fill="black"/>
<path d="M231.939 1.1679H255.168L271.829 41.8321H256.557L253.46 34.2938H233.648L230.658 41.8321H215.385L231.939 1.1679ZM237.333 25.3753H249.882L243.581 10.2457L237.333 25.3753Z" fill="black"/>
<path d="M272.47 1.1679H288.757V31.0556H312.093V41.8321H272.47V1.1679Z" fill="black"/>
<path d="M313.304 1.1679H356.291V10.9358H329.591V15.7136H353.995V25.4284H329.591V31.7988H358V41.8321H313.304V1.1679Z" fill="black"/>
</svg>