<svg xmlns="http://www.w3.org/2000/svg" width="1440" height="226" viewBox="0 0 1440 226" fill="none">
<path fill-rule="evenodd" clip-rule="evenodd" d="M1440 0H0V226H1440V0ZM224.485 75.7901H160.166C153.066 61.9383 135.943 58.1605 127.381 58.1605C116.939 58.1605 106.08 58.1605 100.651 66.5556C99.1892 69.0741 98.9803 72.642 100.442 76.4198C103.243 83.4566 116.2 85.2932 123.71 86.3577L124.217 86.4297L124.413 86.4577L124.666 86.4938L175.828 93.8395C192.326 96.1481 216.967 101.605 225.947 121.963C231.376 133.296 230.123 151.136 222.814 162.469C203.811 192.272 160.166 195 138.448 195H116.939C68.7006 195 38.8385 181.358 24.2206 156.383C24.0851 156.08 23.9506 155.782 23.8171 155.485L23.8162 155.483C22.0997 151.674 20.5498 148.235 19 140.642H88.9567L89.1049 140.859L89.247 141.067L89.51 141.453L89.5153 141.461L89.5179 141.465C91.509 144.388 92.9605 146.52 95.6391 148.827C107.751 160.16 128.634 160.58 138.448 158.691C143.46 157.852 150.769 155.753 153.484 149.457C154.737 147.148 155.154 143.37 153.275 140.432C148.683 132.206 139.32 131.077 126.463 129.526L126.447 129.524L126.395 129.518L126.352 129.513C125.797 129.446 125.235 129.378 124.666 129.309L88.539 125.321C72.4594 123.642 38.212 118.185 28.3972 95.5185C23.1765 83.5556 24.2206 63.8272 31.9472 52.4938C49.4886 25.6296 90.8361 25 106.498 25H126.337C182.72 25 215.296 46.1975 224.485 75.7901ZM233.414 110C233.414 51.6543 280.191 25 338.453 25C396.507 25 443.701 51.6543 443.701 110C443.701 168.346 396.507 195 338.453 195C280.191 195 233.414 168.346 233.414 110ZM295.017 109.79C295.017 139.802 310.47 154.284 338.453 154.284C367.271 154.284 382.307 140.012 382.307 110.21C382.307 81.037 367.062 65.716 338.871 65.716C310.053 65.716 295.017 81.2469 295.017 109.79ZM585.992 75.7901H650.31C641.122 46.1975 608.545 25 552.162 25H532.323C516.661 25 475.314 25.6296 457.773 52.4938C450.046 63.8272 449.002 83.5556 454.223 95.5185C464.037 118.185 498.285 123.642 514.364 125.321L550.491 129.309C551.098 129.383 551.696 129.455 552.288 129.526C565.146 131.077 574.509 132.206 579.1 140.432C580.98 143.37 580.562 147.148 579.309 149.457C576.595 155.753 569.286 157.852 564.274 158.691C554.459 160.58 533.576 160.16 521.465 148.827C518.786 146.52 517.335 144.389 515.344 141.465L515.341 141.462L515.119 141.135C515.009 140.973 514.896 140.809 514.782 140.642H444.825C446.375 148.236 447.925 151.675 449.642 155.484L449.65 155.503L449.657 155.517L449.876 156.003C449.932 156.129 449.989 156.255 450.046 156.383C464.664 181.358 494.526 195 542.765 195H564.274C585.992 195 629.636 192.272 648.64 162.469C655.948 151.136 657.201 133.296 651.772 121.963C642.792 101.605 618.151 96.1481 601.654 93.8395L550.491 86.4938C550.184 86.4497 549.865 86.4045 549.535 86.3577C542.025 85.2932 529.068 83.4566 526.268 76.4198C524.806 72.642 525.015 69.0741 526.476 66.5556C531.906 58.1605 542.765 58.1605 553.206 58.1605C561.768 58.1605 578.892 61.9383 585.992 75.7901ZM868.274 93.8395H805.626C798.944 76 790.382 70.3333 774.302 67.3951C763.861 65.5062 746.111 66.9753 735.669 77.679C722.722 91.1111 723.766 115.667 725.855 125.321C728.36 137.284 735.252 145.679 747.364 150.716C760.52 155.963 780.776 153.654 790.173 147.778C800.197 141.481 803.12 134.136 806.253 123.642L869.736 126.79C868.691 177.58 818.991 195 770.334 195H759.684C732.746 195 691.607 191.012 669.889 154.494C656.733 132.877 655.48 90.6914 667.592 67.8148C687.639 31.5062 730.658 25 756.343 25H777.017C795.602 25 840.5 30.037 859.921 61.9383C863.888 68.4444 868.691 79.9877 868.274 93.8395ZM1016.86 29.6173H926.026L861.29 190.383H921.014L932.708 160.58H1010.18L1022.29 190.383H1082.02L1016.86 29.6173ZM996.191 125.321H947.117L971.55 65.5062L996.191 125.321ZM1084.53 29.6173H1148.22V147.778H1239.47V190.383H1084.53V29.6173ZM1412.32 29.6173H1244.21V190.383H1419V150.716H1307.9V125.531H1403.34V87.1235H1307.9V68.2346H1412.32V29.6173Z" fill="black"/>
</svg>