<svg xmlns="http://www.w3.org/2000/svg" width="187" height="20" viewBox="0 0 187 20" fill="none">
<g clip-path="url(#clip0_2721_2143)">
<path d="M20.7609 6.8291H28.7599V8.31129H25.6147V16.6434H23.8852V8.31129H20.7539V6.8291H20.7609ZM28.4182 9.5372H29.8967V10.9086H29.9246C29.9734 10.7146 30.0641 10.5276 30.1966 10.3476C30.3291 10.1675 30.4895 9.99433 30.6778 9.84888C30.8661 9.6965 31.0753 9.57876 31.3054 9.48179C31.5356 9.39176 31.7727 9.34327 32.0098 9.34327C32.1911 9.34327 32.3236 9.3502 32.3934 9.35713C32.4631 9.36405 32.5328 9.3779 32.6095 9.38483V10.8947C32.498 10.8739 32.3864 10.8601 32.2678 10.8462C32.1493 10.8324 32.0377 10.8255 31.9261 10.8255C31.6611 10.8255 31.41 10.8809 31.1729 10.9848C30.9358 11.0886 30.7336 11.2479 30.5592 11.4488C30.3849 11.6566 30.2454 11.9059 30.1408 12.2107C30.0362 12.5154 29.9874 12.8617 29.9874 13.2565V16.6364H28.4113V9.5372H28.4182ZM39.8554 16.6434H38.3072V15.6529H38.2793C38.0841 16.0131 37.7981 16.2971 37.4146 16.5118C37.031 16.7265 36.6405 16.8373 36.2429 16.8373C35.3015 16.8373 34.618 16.6087 34.1996 16.1447C33.7812 15.6806 33.5719 14.9811 33.5719 14.0461V9.5372H35.148V13.8937C35.148 14.5171 35.2666 14.9603 35.5107 15.2166C35.7478 15.4729 36.0895 15.6045 36.5219 15.6045C36.8567 15.6045 37.1286 15.556 37.3518 15.4521C37.575 15.3482 37.7563 15.2166 37.8888 15.0434C38.0283 14.8772 38.1259 14.6694 38.1887 14.4339C38.2514 14.1985 38.2793 13.9422 38.2793 13.6652V9.54413H39.8554V16.6434ZM42.5404 14.3647C42.5892 14.8218 42.7635 15.1404 43.0634 15.3274C43.3703 15.5075 43.7329 15.6045 44.1583 15.6045C44.3048 15.6045 44.4722 15.5906 44.6605 15.5698C44.8487 15.5491 45.0301 15.5006 45.1905 15.4382C45.3578 15.3759 45.4903 15.2789 45.6019 15.1543C45.7065 15.0296 45.7554 14.8703 45.7484 14.6694C45.7414 14.4686 45.6647 14.3024 45.5252 14.1777C45.3857 14.0461 45.2114 13.9491 44.9952 13.866C44.779 13.7898 44.5349 13.7206 44.256 13.6652C43.977 13.6097 43.6981 13.5474 43.4121 13.4851C43.1192 13.4227 42.8333 13.3396 42.5613 13.2496C42.2893 13.1595 42.0452 13.0349 41.829 12.8756C41.6129 12.7232 41.4385 12.5223 41.313 12.2799C41.1805 12.0375 41.1177 11.7397 41.1177 11.3795C41.1177 10.9917 41.2153 10.6731 41.4036 10.4099C41.5919 10.1467 41.836 9.93892 42.1219 9.77962C42.4149 9.62032 42.7357 9.5095 43.0913 9.44024C43.447 9.3779 43.7887 9.34327 44.1095 9.34327C44.4791 9.34327 44.8348 9.38483 45.1695 9.46102C45.5043 9.5372 45.8111 9.66187 46.0831 9.84195C46.3551 10.0151 46.5783 10.2437 46.7596 10.5207C46.9409 10.7978 47.0525 11.1371 47.1013 11.5319H45.4555C45.3788 11.1579 45.2114 10.9016 44.9394 10.777C44.6674 10.6454 44.3536 10.583 44.0049 10.583C43.8933 10.583 43.7608 10.59 43.6074 10.6107C43.454 10.6315 43.3145 10.6662 43.175 10.7146C43.0425 10.7631 42.9309 10.8393 42.8333 10.9363C42.7426 11.0332 42.6938 11.1579 42.6938 11.3172C42.6938 11.5111 42.7635 11.6635 42.8961 11.7813C43.0286 11.899 43.2029 11.996 43.4191 12.0791C43.6353 12.1553 43.8794 12.2245 44.1583 12.2799C44.4373 12.3353 44.7232 12.3977 45.0161 12.46C45.302 12.5223 45.581 12.6055 45.86 12.6955C46.1389 12.7855 46.383 12.9102 46.5992 13.0695C46.8154 13.2288 46.9897 13.4227 47.1222 13.6582C47.2547 13.8937 47.3245 14.1915 47.3245 14.5378C47.3245 14.9603 47.2268 15.3136 47.0316 15.6114C46.8363 15.9023 46.5852 16.1447 46.2784 16.3248C45.9715 16.5049 45.6228 16.6434 45.2463 16.7265C44.8697 16.8096 44.4931 16.8512 44.1235 16.8512C43.6702 16.8512 43.2517 16.8027 42.8682 16.6988C42.4846 16.5949 42.1498 16.4425 41.8709 16.2417C41.5919 16.0339 41.3688 15.7776 41.2084 15.4729C41.048 15.1681 40.9643 14.801 40.9503 14.3785H42.5404V14.3647ZM47.7429 9.5372H48.9355V7.40397H50.5116V9.5372H51.9342V10.7077H50.5116V14.5032C50.5116 14.6694 50.5185 14.808 50.5325 14.9326C50.5464 15.0504 50.5813 15.1543 50.6301 15.2374C50.6789 15.3205 50.7556 15.3828 50.8603 15.4244C50.9649 15.4659 51.0974 15.4867 51.2787 15.4867C51.3903 15.4867 51.5018 15.4867 51.6134 15.4798C51.725 15.4729 51.8366 15.459 51.9482 15.4313V16.6434C51.7738 16.6642 51.5995 16.678 51.4391 16.6988C51.2717 16.7196 51.1043 16.7265 50.93 16.7265C50.5116 16.7265 50.1768 16.6849 49.9257 16.6087C49.6747 16.5326 49.4724 16.4148 49.333 16.2624C49.1865 16.1101 49.0959 15.9231 49.0401 15.6945C48.9912 15.4659 48.9564 15.2027 48.9494 14.9119V10.7216H47.7569V9.5372H47.7429ZM53.0501 9.5372H54.5425V10.4999H54.5704C54.7935 10.0844 55.1004 9.79347 55.4979 9.61339C55.8954 9.43331 56.3208 9.34327 56.7881 9.34327C57.353 9.34327 57.8411 9.44024 58.2596 9.64109C58.678 9.83503 59.0267 10.1051 59.3057 10.4514C59.5846 10.7978 59.7868 11.1995 59.9263 11.6566C60.0658 12.1137 60.1355 12.6055 60.1355 13.1249C60.1355 13.6028 60.0728 14.0669 59.9472 14.5101C59.8217 14.9603 59.6334 15.3551 59.3824 15.7014C59.1313 16.0477 58.8105 16.3178 58.42 16.5256C58.0294 16.7334 57.5761 16.8373 57.0461 16.8373C56.816 16.8373 56.5858 16.8165 56.3557 16.775C56.1255 16.7334 55.9024 16.6642 55.6932 16.5741C55.4839 16.4841 55.2817 16.3663 55.1074 16.2209C54.926 16.0754 54.7796 15.9092 54.6541 15.7222H54.6262V19.2684H53.0501V9.5372ZM58.5594 13.0972C58.5594 12.7786 58.5176 12.4669 58.4339 12.1622C58.3502 11.8574 58.2247 11.5943 58.0573 11.3588C57.8899 11.1233 57.6807 10.9363 57.4366 10.7978C57.1856 10.6592 56.8996 10.583 56.5788 10.583C55.9163 10.583 55.4142 10.8116 55.0795 11.2687C54.7447 11.7258 54.5773 12.3353 54.5773 13.0972C54.5773 13.4574 54.6192 13.7898 54.7098 14.0946C54.8005 14.3993 54.926 14.6625 55.1074 14.8841C55.2817 15.1058 55.4909 15.2789 55.735 15.4036C55.9791 15.5352 56.265 15.5975 56.5858 15.5975C56.9485 15.5975 57.2483 15.5213 57.4994 15.3759C57.7505 15.2305 57.9527 15.0365 58.1131 14.808C58.2735 14.5725 58.3921 14.3093 58.4618 14.0115C58.5246 13.7136 58.5594 13.4089 58.5594 13.0972ZM61.342 6.8291H62.9181V8.31129H61.342V6.8291ZM61.342 9.5372H62.9181V16.6434H61.342V9.5372ZM64.3269 6.8291H65.903V16.6434H64.3269V6.8291ZM70.7359 16.8373C70.164 16.8373 69.6549 16.7403 69.2086 16.5533C68.7623 16.3663 68.3857 16.1031 68.0718 15.7776C67.765 15.4452 67.5279 15.0504 67.3675 14.5933C67.2071 14.1361 67.1234 13.6305 67.1234 13.0834C67.1234 12.5431 67.2071 12.0444 67.3675 11.5873C67.5279 11.1302 67.765 10.7354 68.0718 10.403C68.3787 10.0705 68.7623 9.81425 69.2086 9.62724C69.6549 9.44024 70.164 9.34327 70.7359 9.34327C71.3077 9.34327 71.8168 9.44024 72.2632 9.62724C72.7095 9.81425 73.0861 10.0774 73.3999 10.403C73.7068 10.7354 73.9439 11.1302 74.1043 11.5873C74.2647 12.0444 74.3484 12.5431 74.3484 13.0834C74.3484 13.6305 74.2647 14.1361 74.1043 14.5933C73.9439 15.0504 73.7068 15.4452 73.3999 15.7776C73.0931 16.1101 72.7095 16.3663 72.2632 16.5533C71.8168 16.7403 71.3077 16.8373 70.7359 16.8373ZM70.7359 15.5975C71.0846 15.5975 71.3914 15.5213 71.6495 15.3759C71.9075 15.2305 72.1167 15.0365 72.2841 14.801C72.4515 14.5655 72.57 14.2954 72.6537 13.9976C72.7304 13.6998 72.7723 13.395 72.7723 13.0834C72.7723 12.7786 72.7304 12.4808 72.6537 12.176C72.577 11.8713 72.4515 11.6081 72.2841 11.3726C72.1167 11.1371 71.9075 10.9501 71.6495 10.8047C71.3914 10.6592 71.0846 10.583 70.7359 10.583C70.3872 10.583 70.0803 10.6592 69.8223 10.8047C69.5643 10.9501 69.355 11.1441 69.1877 11.3726C69.0203 11.6081 68.9017 11.8713 68.8181 12.176C68.7413 12.4808 68.6995 12.7786 68.6995 13.0834C68.6995 13.395 68.7413 13.6998 68.8181 13.9976C68.8948 14.2954 69.0203 14.5655 69.1877 14.801C69.355 15.0365 69.5643 15.2305 69.8223 15.3759C70.0803 15.5283 70.3872 15.5975 70.7359 15.5975ZM74.8086 9.5372H76.0012V7.40397H77.5773V9.5372H79V10.7077H77.5773V14.5032C77.5773 14.6694 77.5843 14.808 77.5982 14.9326C77.6121 15.0504 77.647 15.1543 77.6958 15.2374C77.7447 15.3205 77.8214 15.3828 77.926 15.4244C78.0306 15.4659 78.1631 15.4867 78.3444 15.4867C78.456 15.4867 78.5676 15.4867 78.6792 15.4798C78.7907 15.4729 78.9023 15.459 79.0139 15.4313V16.6434C78.8396 16.6642 78.6652 16.678 78.5048 16.6988C78.3374 16.7196 78.1701 16.7265 77.9957 16.7265C77.5773 16.7265 77.2425 16.6849 76.9915 16.6087C76.7404 16.5326 76.5382 16.4148 76.3987 16.2624C76.2522 16.1101 76.1616 15.9231 76.1058 15.6945C76.057 15.4659 76.0221 15.2027 76.0151 14.9119V10.7216H74.8226V9.5372H74.8086Z" fill="white"/>
<path d="M18.9202 6.82913H11.6952L9.46359 0L7.22496 6.82913L0 6.8222L5.85111 11.0471L3.61248 17.8693L9.46359 13.6513L15.3077 17.8693L13.0761 11.0471L18.9202 6.82913Z" fill="#00B67A"/>
<path d="M13.5775 12.5914L13.0754 11.0469L9.46289 13.6511L13.5775 12.5914Z" fill="#005128"/>
</g>
<rect opacity="0.34" x="168.053" y="1.00195" width="18" height="18" fill="#E5E5E5"/>
<rect x="168.002" y="1" width="9" height="18" fill="#00B67A"/>
<g clip-path="url(#clip1_2721_2143)">
<path d="M177.053 4.00195L178.4 8.14785H182.759L179.232 10.7102L180.579 14.8561L177.053 12.2937L173.526 14.8561L174.873 10.7102L171.346 8.14785H175.706L177.053 4.00195Z" fill="black"/>
</g>
<g clip-path="url(#clip2_2721_2143)">
<path d="M177.053 4.00195L178.4 8.14785H182.759L179.232 10.7102L180.579 14.8561L177.053 12.2937L173.526 14.8561L174.873 10.7102L171.346 8.14785H175.706L177.053 4.00195Z" fill="black"/>
</g>
<rect x="148.053" y="1.00195" width="18" height="18" fill="#00B67A"/>
<path d="M157.053 4.00195L158.4 8.14785H162.759L159.232 10.7102L160.579 14.8561L157.053 12.2937L153.526 14.8561L154.873 10.7102L151.346 8.14785H155.706L157.053 4.00195Z" fill="black"/>
<rect x="128.051" y="1.00195" width="18" height="18" fill="#00B67A"/>
<path d="M137.051 4.00195L138.398 8.14785H142.757L139.23 10.7102L140.577 14.8561L137.051 12.2937L133.524 14.8561L134.871 10.7102L131.344 8.14785H135.704L137.051 4.00195Z" fill="black"/>
<rect x="108.051" y="1.00195" width="18" height="18" fill="#00B67A"/>
<path d="M117.051 4.00195L118.398 8.14785H122.757L119.23 10.7102L120.577 14.8561L117.051 12.2937L113.524 14.8561L114.871 10.7102L111.344 8.14785H115.704L117.051 4.00195Z" fill="black"/>
<rect x="88.0508" y="1.00195" width="18" height="18" fill="#00B67A"/>
<path d="M97.0508 4.00195L98.3979 8.14785H102.757L99.2304 10.7102L100.577 14.8561L97.0508 12.2937L93.5241 14.8561L94.8712 10.7102L91.3444 8.14785H95.7037L97.0508 4.00195Z" fill="black"/>
<defs>
<clipPath id="clip0_2721_2143">
<rect width="79.0004" height="19.2684" fill="white"/>
</clipPath>
<clipPath id="clip1_2721_2143">
<rect width="12" height="12" fill="white" transform="translate(171.053 4.00195)"/>
</clipPath>
<clipPath id="clip2_2721_2143">
<rect width="6" height="12" fill="white" transform="translate(171.002 4)"/>
</clipPath>
</defs>
</svg>